<!-- Created with Inkscape (http://www.inkscape.org/) -->
<svg id="shapw-svg" xmlns:rdf="http://www.w3.org/1999/02/22-rdf-syntax-ns#" xmlns="http://www.w3.org/2000/svg" height="720" viewBox="0 0 1280 720.00001" width="1280" version="1.1" xmlns:cc="http://creativecommons.org/ns#" xmlns:dc="http://purl.org/dc/elements/1.1/">
 <path id="border-path" d="m429.04 160-114.75 34.75-34.75 114.75 54.75 94.75 94.75 54.75 80.658-23.602 65.15 72.3 65.15 112.3 65.155-112.3 65.155-72.3 80.65 23.6 94.75-54.75 54.75-94.75-34.75-114.75-114.75-34.75-93.29 40-53.29 80-64.38 20-64.38-20-53.289-79.999z" stroke="#000" stroke-width="1px" fill="none"/>
 <path id="inside-path" d="m427.9 208.21-67.98 27.954-27.98 67.954 47.98 67.954 47.98 27.954 51.772-15.141 80.162 8.7989 40.081 84.399 20.041-77.8 20.041 142.2 20.041-142.2 20.041 77.8 40.081-84.399 80.162-8.7989 51.772 15.141 47.98-27.954 47.98-67.954-27.98-67.954-67.98-27.954-74.087 56.984 60.249 10 45.062 27.5-44.814 42.5-79.502-20-59.5 10-59.5 10-59.5-10-59.5-10-79.502 20-44.814-42.5 45.062-27.5 60.249-10z" stroke="#000" stroke-width="1px" fill="none"/>
</svg>
