<!-- Created with Inkscape (http://www.inkscape.org/) -->
<svg id="svg2" xmlns:rdf="http://www.w3.org/1999/02/22-rdf-syntax-ns#" xmlns="http://www.w3.org/2000/svg" xml:space="preserve" height="720" viewBox="0 0 1280 719.99998" width="1280" version="1.1" xmlns:cc="http://creativecommons.org/ns#" xmlns:dc="http://purl.org/dc/elements/1.1/"><g id="shape-group" stroke="#000" fill="none"><path id="border-path" d="m922.95 333.81-44.191-44.188-42.095-42.094-42.095-42.094-42.095-42.094-42.095-42.094-44.191-44.188-26.773-11.093-26.789 11.093-53.313 53.322 33.816 33.816 33.816 33.816 24.331-1.297 21.936 12.079 12.111 22.092-1.4234 24.468 32.594 32.59 32.594 32.59 24.472-1.4231 22.091 12.118 13.2 31.858-13.2 31.869-31.872 13.208-31.878-13.208-12.381-23.359 2.5814-25.654-30.4-30.397-30.4-30.397v53.995 59.99 45.995l11.912 8.5197 13.2 31.861-13.2 31.881-31.867 13.194-31.858-13.194-13.2-31.881 13.2-31.861 14.762-9.8323v-46.365-60.73-54.365l-14.762-9.8349-12.413-23.49 2.7124-25.775-33.337-33.342-33.337-33.342-44.016 44.012-44.016 44.012-44.016 44.012-44.016 44.012-11.091 26.792 11.091 26.783 44.194 44.188 42.097 42.094 42.097 42.094 42.097 42.094 42.097 42.094 44.194 44.188 26.773 11.091 26.789-11.091 43.891-43.891 41.945-41.945 41.945-41.945 41.945-41.945 41.945-41.945 43.891-43.891 11.096-26.789-11.096-26.786"/><path id="inside-path" d="m533.5 203.77-44.545 48.545-38.545 38.545-30.545 28.545-26.545 42.545 52.668 61.357 48.668 51.357 46.334 41.678 26.334 39.678 41.334 27.678 33.334 29.678 29.272-20.49 69.272-68.49 20.545-38.98 38.272-22.49 54.272-54.49 36.545-48.98-26.857-32.733-64.714-64.683-36.714-18.683-17.428-39.367-66.857-66.733-38.857-28.733-30.285 17.532 32.545 32.597 56.545 22.597 25.467 60.48 33.467 38.48 54.337 30.935 37.168 56.441-33.168 56.181-38.597 13.454-44.597-8.5456-40.077-74.726 6.8181 41.233-5.1819 33.233 25.766 34.714-2.2339 38.714-28.675 52.571-47.428 13.896-39.091-17.896-27.091-37.896-27.922-41.298-47.922-39.298-29.922-49.298-35.922-19.298 26.156-30.909 49.753 55.818 35.753 33.818 26.701 21.857 14.701-34.143-31.188-29.532-42.376-41.064-25.188-41.532 39.662-45.532 4.2726 48.961 28.273 32.961 34.545 29.922-1.8702-57.688-29.792-27.168-2-43.298z" stroke-width="1px"/></g></svg>
