<!-- Created with Inkscape (http://www.inkscape.org/) -->
<svg id="shapw-svg" xmlns:rdf="http://www.w3.org/1999/02/22-rdf-syntax-ns#" xmlns="http://www.w3.org/2000/svg" height="720" viewBox="0 0 1280 720.00001" width="1280" version="1.1" xmlns:cc="http://creativecommons.org/ns#" xmlns:dc="http://purl.org/dc/elements/1.1/">
 <path id="border-path" d="m429.04 160c-82.568 0-149.5 66.932-149.5 149.5s66.934 149.5 149.5 149.5c29.706 0 57.389-8.6628 80.658-23.602l130.3 184.6 130.31-184.6c23.27 14.94 50.95 23.6 80.65 23.6 82.568 0 149.5-66.932 149.5-149.5s-66.934-149.5-149.5-149.5c-72.469 0-132.89 51.561-146.58 120h-128.76c-13.7-68.44-74.12-120z" stroke="#000" stroke-width="1px" fill="none"/>
 <path id="inside-path" d="m427.9 208.21c-52.998 0-95.96 42.939-95.96 95.909s42.962 95.909 95.96 95.909c19.068 0 36.836-5.5575 51.772-15.141l80.162 8.7989 40.081 84.399 20.041-77.8 20.041 122.2 20.041-122.2 20.041 77.8 40.081-84.399 80.162-8.7989c14.936 9.5837 32.704 15.141 51.772 15.141 52.998 0 95.96-42.939 95.96-95.909s-42.962-95.909-95.96-95.909c-46.516 0-65.296 13.078-74.087 56.984l60.249 10 45.062 7.5 5.0622 47.5-49.876 15-79.502-20-119 20-119-20-79.502 20-49.876-15 5.0622-47.5 45.062-7.5 60.249-10c-8.77-43.91-27.55-56.98z" stroke="#000" stroke-width="1px" fill="none"/>
</svg>
